<svg width="683" height="206" viewBox="0 0 683 206" fill="none" xmlns="http://www.w3.org/2000/svg">
<g filter="url(#filter0_d_3_3)">
<path d="M135.024 139.352C130.48 139.352 126.8 138.2 123.984 135.896C121.232 133.656 119.216 130.744 117.936 127.16C116.72 123.576 116.112 119.832 116.112 115.928C116.112 110.872 116.88 105.784 118.416 100.664C119.952 95.544 122.032 90.68 124.656 86.072C127.344 81.4 130.384 77.272 133.776 73.688C137.168 70.04 140.72 67.192 144.432 65.144C148.208 63.032 151.92 61.976 155.568 61.976C158.192 61.976 160.304 62.616 161.904 63.896C163.568 65.112 164.4 67.224 164.4 70.232C164.4 72.088 164.08 74.2 163.44 76.568C162.8 78.872 161.936 81.112 160.848 83.288C159.76 85.4 158.544 87.16 157.2 88.568C155.92 89.976 154.608 90.68 153.264 90.68C152.752 90.68 152.208 90.52 151.632 90.2C151.12 89.88 150.672 89.304 150.288 88.472C151.248 87.384 152.304 86.04 153.456 84.44C154.672 82.776 155.824 81.048 156.912 79.256C158 77.4 158.864 75.608 159.504 73.88C160.208 72.088 160.56 70.52 160.56 69.176C160.56 67.896 160.176 66.872 159.408 66.104C158.704 65.272 157.52 64.856 155.856 64.856C153.104 64.856 150.224 65.976 147.216 68.216C144.272 70.456 141.392 73.464 138.576 77.24C135.824 80.952 133.328 85.112 131.088 89.72C128.848 94.328 127.056 99.032 125.712 103.832C124.432 108.632 123.792 113.208 123.792 117.56C123.792 120.696 124.24 123.704 125.136 126.584C126.032 129.4 127.472 131.672 129.456 133.4C131.504 135.192 134.128 136.088 137.328 136.088C140.72 136.088 144.08 135.128 147.408 133.208C150.8 131.288 153.904 128.76 156.72 125.624C159.536 122.488 161.776 119.096 163.44 115.448L164.784 116.408C162.672 120.568 160.112 124.408 157.104 127.928C154.096 131.384 150.736 134.136 147.024 136.184C143.312 138.296 139.312 139.352 135.024 139.352ZM166.046 135.512C164.062 135.512 162.398 134.84 161.053 133.496C159.645 132.216 158.941 130.232 158.941 127.544C158.941 125.24 159.453 122.776 160.477 120.152C161.501 117.464 162.91 114.84 164.702 112.28C166.494 109.656 168.51 107.288 170.75 105.176C173.054 103 175.454 101.272 177.95 99.992C180.51 98.712 183.038 98.072 185.534 98.072C188.03 98.072 190.11 98.744 191.774 100.088C193.438 101.368 194.27 103.096 194.27 105.272C194.27 106.872 193.822 107.96 192.926 108.536C192.094 109.112 190.974 109.4 189.566 109.4C189.694 108.888 189.79 108.344 189.854 107.768C189.982 107.128 190.046 106.552 190.046 106.04C190.046 104.568 189.694 103.32 188.99 102.296C188.286 101.208 187.07 100.664 185.342 100.664C183.55 100.664 181.726 101.304 179.87 102.584C178.014 103.8 176.222 105.464 174.494 107.576C172.766 109.624 171.23 111.864 169.886 114.296C168.542 116.728 167.486 119.128 166.718 121.496C165.95 123.864 165.566 125.976 165.566 127.832C165.566 130.328 166.43 131.576 168.158 131.576C169.63 131.576 171.23 130.904 172.958 129.56C174.686 128.152 176.446 126.392 178.238 124.28C180.094 122.104 181.854 119.864 183.518 117.56C185.182 115.256 186.654 113.144 187.934 111.224C188.19 110.84 188.35 110.648 188.414 110.648C188.798 110.712 189.278 110.84 189.854 111.032C190.494 111.224 191.038 111.48 191.486 111.8C191.934 112.12 192.158 112.536 192.158 113.048C192.158 113.624 191.87 114.424 191.294 115.448C190.718 116.408 190.078 117.528 189.374 118.808C188.67 120.088 188.03 121.4 187.454 122.744C186.878 124.024 186.59 125.24 186.59 126.392C186.59 127.352 186.846 128.312 187.358 129.272C187.87 130.168 188.702 130.616 189.854 130.616C191.582 130.616 193.854 129.368 196.67 126.872C199.486 124.312 202.334 120.504 205.214 115.448L206.174 116.408C204.83 119.864 203.102 122.904 200.99 125.528C198.878 128.152 196.606 130.2 194.174 131.672C191.806 133.144 189.47 133.88 187.166 133.88C184.798 133.88 183.038 133.176 181.886 131.768C180.798 130.36 180.254 128.824 180.254 127.16C180.254 126.776 180.286 126.36 180.35 125.912C180.414 125.4 180.478 124.888 180.542 124.376C177.79 128.088 175.262 130.872 172.958 132.728C170.718 134.584 168.414 135.512 166.046 135.512ZM219.858 133.496C217.682 133.496 215.954 132.92 214.674 131.768C213.458 130.616 212.85 129.112 212.85 127.256C212.85 125.336 213.298 123.32 214.194 121.208C215.09 119.096 215.954 117.016 216.786 114.968C217.682 112.856 218.13 110.968 218.13 109.304C218.13 107.256 217.522 105.752 216.306 104.792C215.154 103.768 213.97 102.84 212.754 102.008C211.282 105.784 209.746 109.368 208.146 112.76C206.546 116.152 205.234 118.712 204.21 120.44L203.346 118.808C204.242 117.144 205.394 114.712 206.802 111.512C208.274 108.312 209.714 104.664 211.122 100.568C210.482 99.928 210.162 99.16 210.162 98.264C210.162 96.344 210.706 94.776 211.794 93.56C212.882 92.344 213.682 91.736 214.194 91.736C214.898 91.736 215.282 92.056 215.346 92.696C215.474 93.272 215.538 93.72 215.538 94.04C215.538 94.36 215.346 95 214.962 95.96C214.642 96.856 214.482 97.4 214.482 97.592C214.482 98.488 214.962 99.32 215.922 100.088C216.946 100.792 218.098 101.624 219.378 102.584C220.658 103.48 221.778 104.6 222.738 105.944C223.762 107.224 224.274 108.888 224.274 110.936C224.274 112.856 223.858 114.808 223.026 116.792C222.258 118.776 221.458 120.664 220.626 122.456C219.858 124.248 219.474 125.816 219.474 127.16C219.474 128.312 219.762 129.08 220.338 129.464C220.914 129.848 221.586 130.04 222.354 130.04C223.89 130.04 225.458 129.56 227.058 128.6C228.722 127.64 230.322 126.424 231.858 124.952C233.394 123.48 234.77 121.944 235.986 120.344C237.202 118.68 238.098 117.144 238.674 115.736L239.922 116.696C238.706 119.384 237.042 122.04 234.93 124.664C232.818 127.224 230.45 129.336 227.826 131C225.266 132.664 222.61 133.496 219.858 133.496ZM253.233 133.496C251.057 133.496 249.329 132.92 248.049 131.768C246.833 130.616 246.225 129.112 246.225 127.256C246.225 125.336 246.673 123.32 247.569 121.208C248.465 119.096 249.329 117.016 250.161 114.968C251.057 112.856 251.505 110.968 251.505 109.304C251.505 107.256 250.897 105.752 249.681 104.792C248.529 103.768 247.345 102.84 246.129 102.008C244.657 105.784 243.121 109.368 241.521 112.76C239.921 116.152 238.609 118.712 237.585 120.44L236.721 118.808C237.617 117.144 238.769 114.712 240.177 111.512C241.649 108.312 243.089 104.664 244.497 100.568C243.857 99.928 243.537 99.16 243.537 98.264C243.537 96.344 244.081 94.776 245.169 93.56C246.257 92.344 247.057 91.736 247.569 91.736C248.273 91.736 248.657 92.056 248.721 92.696C248.849 93.272 248.913 93.72 248.913 94.04C248.913 94.36 248.721 95 248.337 95.96C248.017 96.856 247.857 97.4 247.857 97.592C247.857 98.488 248.337 99.32 249.297 100.088C250.321 100.792 251.473 101.624 252.753 102.584C254.033 103.48 255.153 104.6 256.113 105.944C257.137 107.224 257.649 108.888 257.649 110.936C257.649 112.856 257.233 114.808 256.401 116.792C255.633 118.776 254.833 120.664 254.001 122.456C253.233 124.248 252.849 125.816 252.849 127.16C252.849 128.312 253.137 129.08 253.713 129.464C254.289 129.848 254.961 130.04 255.729 130.04C257.265 130.04 258.833 129.56 260.433 128.6C262.097 127.64 263.697 126.424 265.233 124.952C266.769 123.48 268.145 121.944 269.361 120.344C270.577 118.68 271.473 117.144 272.049 115.736L273.297 116.696C272.081 119.384 270.417 122.04 268.305 124.664C266.193 127.224 263.825 129.336 261.201 131C258.641 132.664 255.985 133.496 253.233 133.496ZM280.368 135.224C276.464 135.224 273.52 134.136 271.536 131.96C269.616 129.848 268.656 127.224 268.656 124.088C268.656 121.208 269.36 118.168 270.768 114.968C272.24 111.768 274.16 108.76 276.528 105.944C278.96 103.128 281.616 100.856 284.496 99.128C287.376 97.336 290.224 96.44 293.04 96.44C294.512 96.44 295.856 96.824 297.072 97.592C298.352 98.36 298.992 99.928 298.992 102.296C298.992 104.728 298.256 107.032 296.784 109.208C295.376 111.32 293.488 113.208 291.12 114.872C288.816 116.536 286.256 117.912 283.44 119C280.688 120.024 277.936 120.664 275.184 120.92C275.056 121.56 274.96 122.168 274.896 122.744C274.832 123.32 274.8 123.864 274.8 124.376C274.8 125.336 274.896 126.296 275.088 127.256C275.344 128.216 275.76 129.112 276.336 129.944C276.912 130.712 277.68 131.32 278.64 131.768C279.664 132.216 280.912 132.44 282.384 132.44C285.136 132.44 287.856 131.672 290.544 130.136C293.232 128.536 295.728 126.456 298.032 123.896C300.336 121.336 302.288 118.52 303.888 115.448L305.04 116.312C303.312 120.152 301.104 123.48 298.416 126.296C295.792 129.112 292.912 131.288 289.776 132.824C286.704 134.424 283.568 135.224 280.368 135.224ZM275.664 119.096C277.392 118.52 279.344 117.688 281.52 116.6C283.696 115.448 285.776 114.104 287.76 112.568C289.808 111.032 291.472 109.336 292.752 107.48C294.096 105.624 294.768 103.672 294.768 101.624C294.768 100.92 294.64 100.376 294.384 99.992C294.128 99.608 293.584 99.416 292.752 99.416C291.216 99.416 289.584 100.024 287.856 101.24C286.128 102.392 284.464 103.928 282.864 105.848C281.264 107.768 279.824 109.88 278.544 112.184C277.264 114.488 276.304 116.792 275.664 119.096ZM305.617 157.88C304.209 157.88 302.929 157.432 301.777 156.536C300.625 155.704 300.049 154.296 300.049 152.312C300.049 150.392 300.657 148.6 301.873 146.936C303.025 145.336 304.529 143.832 306.385 142.424C308.241 141.08 310.257 139.832 312.433 138.68C314.673 137.528 316.785 136.44 318.769 135.416C319.665 133.176 320.497 130.776 321.265 128.216C322.097 125.592 322.897 122.712 323.665 119.576C321.233 123.096 318.673 126.04 315.985 128.408C313.361 130.712 310.705 131.864 308.017 131.864C305.713 131.864 303.921 131 302.641 129.272C301.425 127.544 300.817 125.304 300.817 122.552C300.817 119.224 301.617 116.056 303.217 113.048C304.881 110.04 307.025 107.384 309.649 105.08C312.273 102.776 315.057 100.984 318.001 99.704C320.945 98.36 323.697 97.688 326.257 97.688C328.113 97.688 329.425 98.008 330.193 98.648C331.025 99.224 331.441 99.928 331.441 100.76C331.441 101.336 331.281 101.784 330.961 102.104C330.641 102.424 330.417 102.616 330.289 102.68C329.969 102.168 329.489 101.816 328.849 101.624C328.209 101.368 327.409 101.24 326.449 101.24C323.953 101.24 321.521 101.976 319.153 103.448C316.849 104.92 314.801 106.808 313.009 109.112C311.217 111.416 309.777 113.816 308.689 116.312C307.665 118.744 307.153 120.984 307.153 123.032C307.153 124.568 307.441 125.752 308.017 126.584C308.657 127.352 309.489 127.736 310.513 127.736C312.369 127.736 314.577 126.52 317.137 124.088C319.761 121.592 322.289 118.584 324.721 115.064C324.913 114.168 325.073 113.368 325.201 112.664C325.393 111.96 325.617 111.064 325.873 109.976C326.065 109.08 326.513 108.056 327.217 106.904C327.985 105.688 329.169 105.08 330.769 105.08C331.089 105.08 331.409 105.112 331.729 105.176C332.049 105.176 332.401 105.24 332.785 105.368C332.785 106.392 332.465 108.28 331.825 111.032C331.249 113.72 330.385 116.888 329.233 120.536C328.145 124.12 326.865 127.832 325.393 131.672C327.505 130.648 329.553 129.336 331.537 127.736C333.585 126.136 335.441 124.312 337.105 122.264C338.769 120.152 340.081 117.88 341.041 115.448L342.289 116.408C341.329 119.288 339.793 121.912 337.681 124.28C335.569 126.648 333.297 128.696 330.865 130.424C328.497 132.152 326.321 133.496 324.337 134.456C322.545 138.744 320.657 142.648 318.673 146.168C316.689 149.752 314.609 152.6 312.433 154.712C310.321 156.824 308.049 157.88 305.617 157.88ZM305.329 154.808C306.609 154.808 308.337 153.528 310.513 150.968C312.753 148.472 315.153 144.152 317.713 138.008C315.153 139.288 312.753 140.6 310.513 141.944C308.337 143.352 306.545 144.824 305.137 146.36C303.729 147.896 303.025 149.592 303.025 151.448C303.025 152.472 303.249 153.272 303.697 153.848C304.145 154.488 304.689 154.808 305.329 154.808ZM343.889 135.512C341.905 135.512 340.241 134.84 338.897 133.496C337.489 132.216 336.785 130.232 336.785 127.544C336.785 125.24 337.297 122.776 338.321 120.152C339.345 117.464 340.753 114.84 342.545 112.28C344.337 109.656 346.353 107.288 348.593 105.176C350.897 103 353.297 101.272 355.793 99.992C358.353 98.712 360.881 98.072 363.377 98.072C365.873 98.072 367.953 98.744 369.617 100.088C371.281 101.368 372.113 103.096 372.113 105.272C372.113 106.872 371.665 107.96 370.769 108.536C369.937 109.112 368.817 109.4 367.409 109.4C367.537 108.888 367.633 108.344 367.697 107.768C367.825 107.128 367.889 106.552 367.889 106.04C367.889 104.568 367.537 103.32 366.833 102.296C366.129 101.208 364.913 100.664 363.185 100.664C361.393 100.664 359.569 101.304 357.713 102.584C355.857 103.8 354.065 105.464 352.337 107.576C350.609 109.624 349.073 111.864 347.729 114.296C346.385 116.728 345.329 119.128 344.561 121.496C343.793 123.864 343.409 125.976 343.409 127.832C343.409 130.328 344.273 131.576 346.001 131.576C347.473 131.576 349.073 130.904 350.801 129.56C352.529 128.152 354.289 126.392 356.081 124.28C357.937 122.104 359.697 119.864 361.361 117.56C363.025 115.256 364.497 113.144 365.777 111.224C366.033 110.84 366.193 110.648 366.257 110.648C366.641 110.712 367.121 110.84 367.697 111.032C368.337 111.224 368.881 111.48 369.329 111.8C369.777 112.12 370.001 112.536 370.001 113.048C370.001 113.624 369.713 114.424 369.137 115.448C368.561 116.408 367.921 117.528 367.217 118.808C366.513 120.088 365.873 121.4 365.297 122.744C364.721 124.024 364.433 125.24 364.433 126.392C364.433 127.352 364.689 128.312 365.201 129.272C365.713 130.168 366.545 130.616 367.697 130.616C369.425 130.616 371.697 129.368 374.513 126.872C377.329 124.312 380.177 120.504 383.057 115.448L384.017 116.408C382.673 119.864 380.945 122.904 378.833 125.528C376.721 128.152 374.449 130.2 372.017 131.672C369.649 133.144 367.313 133.88 365.009 133.88C362.641 133.88 360.881 133.176 359.729 131.768C358.641 130.36 358.097 128.824 358.097 127.16C358.097 126.776 358.129 126.36 358.193 125.912C358.257 125.4 358.321 124.888 358.385 124.376C355.633 128.088 353.105 130.872 350.801 132.728C348.561 134.584 346.257 135.512 343.889 135.512ZM412.102 132.92C409.862 132.92 408.166 132.344 407.014 131.192C405.926 130.04 405.382 128.568 405.382 126.776C405.382 125.432 405.606 124.024 406.054 122.552C406.566 121.08 407.046 119.576 407.494 118.04C407.942 116.44 408.166 114.904 408.166 113.432C408.166 111.64 407.782 110.424 407.014 109.784C406.31 109.08 405.414 108.728 404.326 108.728C402.342 108.728 400.326 109.56 398.278 111.224C396.23 112.824 394.246 114.904 392.326 117.464C390.406 119.96 388.614 122.552 386.95 125.24C385.286 127.928 383.814 130.328 382.534 132.44C381.51 132.44 380.55 132.248 379.654 131.864C378.694 131.544 377.958 131.032 377.446 130.328C377.446 130.008 377.798 129.016 378.502 127.352C379.142 125.688 379.91 123.64 380.806 121.208C381.702 118.776 382.502 116.28 383.206 113.72C383.91 111.16 384.262 108.824 384.262 106.712C384.646 106.264 385.254 105.816 386.086 105.368C386.918 104.92 387.782 104.696 388.678 104.696C390.406 104.696 391.27 105.528 391.27 107.192C391.27 108.216 390.982 109.944 390.406 112.376C389.83 114.744 389.094 117.24 388.198 119.864C389.926 117.24 391.846 114.648 393.958 112.088C396.134 109.464 398.438 107.288 400.87 105.56C403.302 103.832 405.734 102.968 408.166 102.968C410.662 102.968 412.454 103.864 413.542 105.656C414.694 107.448 415.27 109.432 415.27 111.608C415.27 113.592 414.95 115.448 414.31 117.176C413.67 118.84 412.998 120.472 412.294 122.072C411.654 123.608 411.334 125.176 411.334 126.776C411.334 128.12 411.59 129.08 412.102 129.656C412.678 130.168 413.382 130.424 414.214 130.424C415.814 130.424 417.414 129.688 419.014 128.216C420.614 126.68 422.15 124.76 423.622 122.456C425.158 120.152 426.502 117.816 427.654 115.448L428.71 116.696C427.366 119.832 425.862 122.616 424.198 125.048C422.534 127.48 420.71 129.4 418.726 130.808C416.742 132.216 414.534 132.92 412.102 132.92ZM431.477 133.88C430.389 133.88 429.269 133.592 428.117 133.016C427.029 132.504 426.133 131.64 425.428 130.424C424.66 129.208 424.276 127.672 424.276 125.816C424.276 123.704 424.788 121.336 425.812 118.712C426.837 116.088 428.213 113.496 429.941 110.936C431.669 108.312 433.653 105.912 435.893 103.736C438.133 101.496 440.469 99.736 442.901 98.456C445.333 97.112 447.733 96.44 450.101 96.44C451.445 96.44 452.469 96.696 453.173 97.208C453.941 97.656 454.325 98.392 454.325 99.416C454.325 99.672 454.293 99.896 454.229 100.088C454.229 100.28 454.197 100.504 454.133 100.76C453.813 100.248 453.333 99.896 452.693 99.704C452.117 99.448 451.381 99.32 450.484 99.32C448.437 99.32 446.421 99.96 444.437 101.24C442.517 102.456 440.725 104.088 439.061 106.136C437.461 108.12 436.053 110.264 434.837 112.568C433.621 114.872 432.661 117.112 431.957 119.288C431.317 121.4 430.997 123.192 430.997 124.664C430.997 126.072 431.317 127.192 431.957 128.024C432.597 128.856 433.429 129.272 434.453 129.272C436.181 129.272 438.261 128.184 440.693 126.008C443.189 123.832 445.717 120.76 448.277 116.792C450.837 112.824 453.141 108.184 455.189 102.872C456.597 99.16 458.037 95.384 459.509 91.544C461.045 87.704 462.581 84.024 464.117 80.504C465.653 76.92 467.125 73.752 468.533 71C470.005 68.184 471.381 65.976 472.661 64.376C474.005 62.712 475.189 61.88 476.213 61.88C476.725 61.88 477.173 62.104 477.557 62.552C477.941 62.936 478.133 63.448 478.133 64.088C478.133 65.112 477.589 66.872 476.5 69.368C475.477 71.8 474.101 74.744 472.373 78.2C470.709 81.592 468.949 85.304 467.093 89.336C465.237 93.368 463.445 97.464 461.717 101.624C460.053 105.784 458.677 109.816 457.589 113.72C456.565 117.56 456.053 121.08 456.053 124.28C456.053 126.072 456.149 127.416 456.341 128.312C456.533 129.208 457.173 129.656 458.261 129.656C459.605 129.656 461.173 129.08 462.965 127.928C464.757 126.776 466.549 125.144 468.341 123.032C470.133 120.92 471.701 118.392 473.045 115.448L474.197 116.312C472.981 119.576 471.317 122.52 469.205 125.144C467.093 127.704 464.821 129.72 462.389 131.192C460.021 132.728 457.749 133.496 455.573 133.496C453.205 133.496 451.541 132.696 450.581 131.096C449.685 129.56 449.237 127.96 449.237 126.296C449.237 125.208 449.397 123.768 449.717 121.976C450.037 120.184 450.485 118.2 451.061 116.024C449.013 119.416 446.837 122.488 444.533 125.24C442.229 127.928 439.957 130.04 437.717 131.576C435.541 133.112 433.461 133.88 431.477 133.88ZM477.812 134.072C475.06 134.072 473.108 133.208 471.956 131.48C470.803 129.816 470.227 127.768 470.227 125.336C470.227 123.352 470.547 121.304 471.188 119.192C471.828 117.08 472.66 115.096 473.684 113.24C474.772 111.384 475.956 109.88 477.236 108.728C478.58 107.576 479.924 107 481.268 107C481.588 107 481.908 107.064 482.228 107.192C482.612 107.256 482.964 107.352 483.284 107.48C482.708 107.992 482.004 108.952 481.172 110.36C480.404 111.704 479.668 113.272 478.964 115.064C478.26 116.792 477.652 118.52 477.14 120.248C476.692 121.976 476.468 123.448 476.468 124.664C476.468 126.584 476.788 127.992 477.428 128.888C478.068 129.72 478.9 130.136 479.924 130.136C481.268 130.136 482.868 129.432 484.724 128.024C486.58 126.552 488.404 124.696 490.196 122.456C488.404 120.984 486.996 119.064 485.972 116.696C485.012 114.264 484.532 111.8 484.532 109.304C484.532 107.192 484.884 105.208 485.588 103.352C486.356 101.496 487.444 100.024 488.852 98.936C490.26 97.784 491.956 97.208 493.94 97.208C496.564 97.208 498.324 97.912 499.22 99.32C500.116 100.728 500.564 102.488 500.564 104.6C500.564 107.096 499.956 109.88 498.74 112.952C497.524 115.96 495.988 118.872 494.132 121.688C495.284 122.328 496.5 122.648 497.78 122.648C498.804 122.648 499.956 122.456 501.236 122.072C502.516 121.624 503.764 120.888 504.98 119.864C506.26 118.84 507.284 117.464 508.052 115.736L509.204 116.696C507.924 119.704 506.1 121.848 503.732 123.128C501.428 124.344 499.22 124.952 497.108 124.952C496.276 124.952 495.476 124.888 494.708 124.76C493.94 124.568 493.204 124.312 492.5 123.992C490.324 126.872 487.924 129.272 485.299 131.192C482.74 133.112 480.244 134.072 477.812 134.072ZM491.924 119.96C493.524 117.592 494.836 115.128 495.859 112.568C496.948 109.944 497.492 107.48 497.492 105.176C497.492 103.32 497.204 101.976 496.628 101.144C496.116 100.248 495.444 99.8 494.612 99.8C493.332 99.8 492.02 100.728 490.676 102.584C489.332 104.44 488.66 106.776 488.66 109.592C488.66 111.448 488.916 113.336 489.428 115.256C490.004 117.112 490.836 118.68 491.924 119.96ZM510.09 131.96C509.258 131.96 508.522 131.736 507.882 131.288C507.306 130.904 507.018 130.264 507.018 129.368C507.018 128.664 507.306 128.024 507.882 127.448C508.458 126.808 509.162 126.328 509.994 126.008C510.89 125.624 511.754 125.432 512.586 125.432C513.354 125.432 513.962 125.592 514.41 125.912C514.858 126.232 515.082 126.84 515.082 127.736C515.082 128.376 514.826 129.016 514.314 129.656C513.866 130.296 513.258 130.84 512.49 131.288C511.722 131.736 510.922 131.96 510.09 131.96ZM530.621 131.96C529.789 131.96 529.053 131.736 528.413 131.288C527.837 130.904 527.549 130.264 527.549 129.368C527.549 128.664 527.837 128.024 528.413 127.448C528.989 126.808 529.693 126.328 530.525 126.008C531.421 125.624 532.285 125.432 533.117 125.432C533.885 125.432 534.493 125.592 534.941 125.912C535.389 126.232 535.613 126.84 535.613 127.736C535.613 128.376 535.357 129.016 534.845 129.656C534.397 130.296 533.789 130.84 533.021 131.288C532.253 131.736 531.453 131.96 530.621 131.96ZM551.153 131.96C550.321 131.96 549.585 131.736 548.945 131.288C548.369 130.904 548.081 130.264 548.081 129.368C548.081 128.664 548.369 128.024 548.945 127.448C549.521 126.808 550.225 126.328 551.057 126.008C551.953 125.624 552.817 125.432 553.648 125.432C554.417 125.432 555.025 125.592 555.473 125.912C555.921 126.232 556.145 126.84 556.145 127.736C556.145 128.376 555.889 129.016 555.377 129.656C554.929 130.296 554.321 130.84 553.553 131.288C552.785 131.736 551.985 131.96 551.153 131.96Z" fill="white"/>
</g>
<defs>
<filter id="filter0_d_3_3" x="112.112" y="61.88" width="448.033" height="104" filterUnits="userSpaceOnUse" color-interpolation-filters="sRGB">
<feFlood flood-opacity="0" result="BackgroundImageFix"/>
<feColorMatrix in="SourceAlpha" type="matrix" values="0 0 0 0 0 0 0 0 0 0 0 0 0 0 0 0 0 0 127 0" result="hardAlpha"/>
<feOffset dy="4"/>
<feGaussianBlur stdDeviation="2"/>
<feComposite in2="hardAlpha" operator="out"/>
<feColorMatrix type="matrix" values="0 0 0 0 0 0 0 0 0 0 0 0 0 0 0 0 0 0 0.25 0"/>
<feBlend mode="normal" in2="BackgroundImageFix" result="effect1_dropShadow_3_3"/>
<feBlend mode="normal" in="SourceGraphic" in2="effect1_dropShadow_3_3" result="shape"/>
</filter>
</defs>
</svg>
