<svg width="731" height="159" viewBox="0 0 731 159" fill="none" xmlns="http://www.w3.org/2000/svg">
<path d="M119.648 126.352C117.664 126.352 115.776 126.064 113.984 125.488C112.192 124.976 110.656 123.824 109.376 122.032C110.016 118.96 110.784 115.664 111.68 112.144C112.64 108.56 113.664 104.912 114.752 101.2C115.84 97.424 116.928 93.744 118.016 90.16C119.168 86.512 120.256 83.12 121.28 79.984C122.304 76.848 123.232 74.096 124.064 71.728C124.896 69.36 125.536 67.568 125.984 66.352C126.176 65.84 126.496 65.104 126.944 64.144C127.392 63.12 127.936 62.096 128.576 61.072C129.216 60.048 129.952 59.184 130.784 58.48C131.616 57.712 132.512 57.328 133.472 57.328C134.368 57.328 135.264 57.648 136.16 58.288C134.176 62.896 132.16 67.984 130.112 73.552C128.128 79.12 126.208 84.88 124.352 90.832C122.496 96.72 120.8 102.48 119.264 108.112C117.728 113.744 116.448 118.864 115.424 123.472C116.32 123.6 117.056 123.696 117.632 123.76C118.272 123.824 118.912 123.856 119.552 123.856C123.648 123.856 127.584 122.896 131.36 120.976C135.2 119.12 138.752 116.56 142.016 113.296C145.344 109.968 148.256 106.192 150.752 101.968C153.248 97.68 155.168 93.168 156.512 88.432C157.92 83.632 158.624 78.864 158.624 74.128C158.624 68.944 157.792 64.688 156.128 61.36C154.464 57.968 152.16 55.472 149.216 53.872C146.272 52.272 142.848 51.472 138.944 51.472C134.784 51.472 131.04 52.304 127.712 53.968C124.384 55.632 121.76 57.872 119.84 60.688C117.92 63.504 116.96 66.672 116.96 70.192C116.96 70.96 116.992 71.632 117.056 72.208C117.184 72.784 117.312 73.296 117.44 73.744C115.328 73.744 113.824 73.232 112.928 72.208C112.096 71.12 111.68 69.84 111.68 68.368C111.68 66.128 112.448 63.888 113.984 61.648C115.584 59.344 117.76 57.232 120.512 55.312C123.328 53.392 126.56 51.856 130.208 50.704C133.856 49.488 137.728 48.88 141.824 48.88C147.584 48.88 152.192 50.064 155.648 52.432C159.168 54.736 161.728 57.872 163.328 61.84C164.928 65.808 165.728 70.256 165.728 75.184C165.728 80.752 164.864 86.096 163.136 91.216C161.408 96.272 159.008 100.944 155.936 105.232C152.928 109.456 149.472 113.168 145.568 116.368C141.664 119.504 137.472 121.936 132.992 123.664C128.576 125.456 124.128 126.352 119.648 126.352ZM170.389 122.512C168.405 122.512 166.741 121.84 165.397 120.496C163.989 119.216 163.285 117.232 163.285 114.544C163.285 112.24 163.797 109.776 164.821 107.152C165.845 104.464 167.253 101.84 169.045 99.28C170.837 96.656 172.853 94.288 175.093 92.176C177.397 90 179.797 88.272 182.293 86.992C184.853 85.712 187.381 85.072 189.877 85.072C192.373 85.072 194.453 85.744 196.117 87.088C197.781 88.368 198.613 90.096 198.613 92.272C198.613 93.872 198.165 94.96 197.269 95.536C196.437 96.112 195.317 96.4 193.909 96.4C194.037 95.888 194.133 95.344 194.197 94.768C194.325 94.128 194.389 93.552 194.389 93.04C194.389 91.568 194.037 90.32 193.333 89.296C192.629 88.208 191.413 87.664 189.685 87.664C187.893 87.664 186.069 88.304 184.213 89.584C182.357 90.8 180.565 92.464 178.837 94.576C177.109 96.624 175.573 98.864 174.229 101.296C172.885 103.728 171.829 106.128 171.061 108.496C170.293 110.864 169.909 112.976 169.909 114.832C169.909 117.328 170.773 118.576 172.501 118.576C173.973 118.576 175.573 117.904 177.301 116.56C179.029 115.152 180.789 113.392 182.581 111.28C184.437 109.104 186.197 106.864 187.861 104.56C189.525 102.256 190.997 100.144 192.277 98.224C192.533 97.84 192.693 97.648 192.757 97.648C193.141 97.712 193.621 97.84 194.197 98.032C194.837 98.224 195.381 98.48 195.829 98.8C196.277 99.12 196.501 99.536 196.501 100.048C196.501 100.624 196.213 101.424 195.637 102.448C195.061 103.408 194.421 104.528 193.717 105.808C193.013 107.088 192.373 108.4 191.797 109.744C191.221 111.024 190.933 112.24 190.933 113.392C190.933 114.352 191.189 115.312 191.701 116.272C192.213 117.168 193.045 117.616 194.197 117.616C195.925 117.616 198.197 116.368 201.013 113.872C203.829 111.312 206.677 107.504 209.557 102.448L210.517 103.408C209.173 106.864 207.445 109.904 205.333 112.528C203.221 115.152 200.949 117.2 198.517 118.672C196.149 120.144 193.813 120.88 191.509 120.88C189.141 120.88 187.381 120.176 186.229 118.768C185.141 117.36 184.597 115.824 184.597 114.16C184.597 113.776 184.629 113.36 184.693 112.912C184.757 112.4 184.821 111.888 184.885 111.376C182.133 115.088 179.605 117.872 177.301 119.728C175.061 121.584 172.757 122.512 170.389 122.512ZM214.506 120.496C212.01 120.496 210.154 119.696 208.938 118.096C207.722 116.56 207.114 114.672 207.114 112.432C207.114 110.96 207.37 109.104 207.882 106.864C208.458 104.624 209.194 102.288 210.09 99.856C210.986 97.36 212.01 95.024 213.162 92.848C214.378 90.672 215.658 88.912 217.002 87.568C218.346 86.16 219.658 85.456 220.938 85.456C221.514 85.456 221.994 85.648 222.378 86.032C222.826 86.352 223.05 86.864 223.05 87.568C223.05 88.336 222.538 89.584 221.514 91.312C220.554 93.04 219.402 95.024 218.058 97.264C216.714 99.504 215.53 101.872 214.506 104.368C213.546 106.8 213.066 109.136 213.066 111.376C213.066 113.68 213.45 115.216 214.218 115.984C214.986 116.752 216.17 117.136 217.77 117.136C219.946 117.136 222.25 116.048 224.682 113.872C227.178 111.696 229.802 107.888 232.554 102.448L233.418 103.408C231.562 108.912 228.874 113.136 225.354 116.08C221.898 119.024 218.282 120.496 214.506 120.496ZM226.026 76.528C225.002 76.528 224.074 76.272 223.242 75.76C222.474 75.248 222.09 74.448 222.09 73.36C222.09 72.016 222.858 70.864 224.394 69.904C225.994 68.88 227.562 68.368 229.098 68.368C230.058 68.368 230.826 68.592 231.402 69.04C231.978 69.488 232.266 70.256 232.266 71.344C232.266 72.56 231.594 73.744 230.25 74.896C228.97 75.984 227.562 76.528 226.026 76.528ZM238.718 120.88C235.966 120.88 233.982 119.92 232.766 118C231.614 116.144 231.038 113.808 231.038 110.992C231.038 107.92 231.614 104.272 232.766 100.048C233.918 95.824 235.422 91.376 237.278 86.704C239.198 82.032 241.278 77.488 243.518 73.072C245.758 68.592 247.998 64.528 250.238 60.88C252.478 57.232 254.526 54.32 256.382 52.144C258.302 49.968 259.806 48.88 260.894 48.88C261.598 48.88 262.174 49.296 262.622 50.128C263.07 50.896 263.422 51.856 263.678 53.008C263.934 54.096 264.062 55.088 264.062 55.984C264.062 57.712 263.614 59.984 262.718 62.8C261.886 65.552 260.67 68.656 259.07 72.112C257.534 75.504 255.678 78.96 253.502 82.48C251.39 85.936 249.054 89.264 246.494 92.464C243.998 95.664 241.342 98.416 238.526 100.72C238.142 102.448 237.822 104.144 237.566 105.808C237.374 107.408 237.278 108.944 237.278 110.416C237.278 112.912 237.63 114.768 238.334 115.984C239.038 117.2 240.094 117.808 241.502 117.808C243.23 117.808 244.926 117.04 246.59 115.504C248.318 113.968 249.918 112.048 251.39 109.744C252.926 107.376 254.238 104.944 255.326 102.448L256.766 103.216C254.206 108.656 251.422 112.976 248.414 116.176C245.406 119.312 242.174 120.88 238.718 120.88ZM239.39 97.456C241.63 95.216 243.806 92.656 245.918 89.776C248.03 86.832 249.982 83.792 251.774 80.656C253.63 77.52 255.262 74.48 256.67 71.536C258.078 68.592 259.166 65.968 259.934 63.664C260.702 61.296 261.086 59.472 261.086 58.192C261.086 57.552 260.99 57.136 260.798 56.944C260.67 56.752 260.542 56.656 260.414 56.656C259.902 56.656 259.006 57.488 257.726 59.152C256.51 60.752 255.07 62.928 253.406 65.68C251.742 68.432 250.046 71.568 248.318 75.088C246.59 78.608 244.926 82.288 243.326 86.128C241.79 89.968 240.478 93.744 239.39 97.456ZM257.566 144.88C255.966 144.88 254.558 144.432 253.341 143.536C252.125 142.704 251.517 141.456 251.517 139.792C251.517 137.744 252.029 135.92 253.053 134.32C254.078 132.72 255.454 131.248 257.182 129.904C258.91 128.56 260.894 127.28 263.134 126.064C265.374 124.848 267.71 123.632 270.142 122.416C271.038 120.048 271.934 117.424 272.83 114.544C273.79 111.6 274.686 108.368 275.518 104.848C273.47 108.176 271.262 111.056 268.894 113.488C266.59 115.856 264.126 117.04 261.502 117.04C260.286 117.04 259.07 116.784 257.854 116.272C256.702 115.696 255.742 114.832 254.974 113.68C254.206 112.528 253.822 111.056 253.822 109.264C253.822 107.472 254.11 105.392 254.686 103.024C255.326 100.656 256.094 98.352 256.99 96.112C257.886 93.872 258.814 92.016 259.773 90.544C260.734 89.072 261.566 88.336 262.27 88.336C262.526 88.336 262.974 88.432 263.614 88.624C264.318 88.816 264.958 89.104 265.534 89.488C266.174 89.808 266.494 90.16 266.494 90.544C265.918 91.376 265.278 92.56 264.574 94.096C263.87 95.632 263.166 97.36 262.462 99.28C261.822 101.136 261.278 102.96 260.83 104.752C260.382 106.544 260.158 108.08 260.158 109.36C260.158 110.512 260.414 111.44 260.926 112.144C261.438 112.848 262.334 113.2 263.614 113.2C264.83 113.2 266.174 112.624 267.646 111.472C269.182 110.256 270.686 108.72 272.158 106.864C273.694 105.008 275.102 103.024 276.382 100.912C276.574 100.208 276.734 99.504 276.862 98.8C277.054 98.032 277.214 97.264 277.342 96.496C277.534 95.6 277.982 94.576 278.686 93.424C279.454 92.208 280.638 91.6 282.238 91.6C282.558 91.6 282.878 91.632 283.198 91.696C283.518 91.696 283.87 91.76 284.254 91.888C284.254 92.912 283.934 94.832 283.294 97.648C282.718 100.4 281.854 103.632 280.702 107.344C279.614 111.056 278.302 114.864 276.766 118.768C279.774 117.616 282.718 115.728 285.598 113.104C288.478 110.416 290.814 106.864 292.606 102.448L293.854 103.408C292.894 106.48 291.422 109.168 289.438 111.472C287.518 113.712 285.342 115.664 282.91 117.328C280.478 118.928 278.078 120.272 275.71 121.36C274.046 125.456 272.222 129.296 270.238 132.88C268.318 136.464 266.27 139.344 264.094 141.52C261.982 143.76 259.806 144.88 257.566 144.88ZM257.086 141.808C258.046 141.808 259.646 140.528 261.886 137.968C264.19 135.472 266.622 131.056 269.182 124.72C266.558 126.128 264.126 127.504 261.886 128.848C259.646 130.256 257.854 131.76 256.51 133.36C255.166 134.96 254.494 136.816 254.494 138.928C254.494 139.44 254.686 140.048 255.07 140.752C255.454 141.456 256.126 141.808 257.086 141.808ZM335.176 126.352C331.72 126.352 328.456 125.712 325.384 124.432C322.312 123.216 319.816 121.328 317.896 118.768C316.04 116.208 315.111 113.008 315.111 109.168C315.111 105.84 315.752 103.248 317.032 101.392C318.376 99.536 320.008 98.224 321.928 97.456C323.848 96.688 325.672 96.304 327.4 96.304C325.672 98.16 324.36 100.208 323.464 102.448C322.568 104.688 322.12 106.928 322.12 109.168C322.12 111.536 322.632 113.744 323.656 115.792C324.744 117.84 326.376 119.472 328.552 120.688C330.728 121.968 333.48 122.608 336.808 122.608C339.688 122.608 342.504 122.064 345.256 120.976C348.008 119.952 350.248 118.416 351.976 116.368C353.768 114.256 354.664 111.664 354.664 108.592C354.664 105.84 353.96 103.472 352.552 101.488C351.144 99.504 349.32 97.744 347.08 96.208C344.904 94.672 342.568 93.2 340.072 91.792C337.576 90.384 335.208 88.912 332.968 87.376C330.792 85.776 329 83.952 327.592 81.904C326.184 79.856 325.48 77.392 325.48 74.512C325.48 71.824 326.12 69.008 327.4 66.064C328.68 63.12 330.504 60.336 332.872 57.712C335.304 55.088 338.184 52.976 341.512 51.376C344.904 49.712 348.68 48.88 352.84 48.88C356.616 48.88 359.24 49.808 360.712 51.664C362.184 53.456 362.92 55.728 362.92 58.48C362.92 60.784 362.504 63.28 361.672 65.968C360.904 68.592 359.944 71.12 358.792 73.552C357.64 75.92 356.552 77.936 355.528 79.6C354.376 79.344 353.544 78.864 353.032 78.16C352.584 77.392 352.36 76.496 352.36 75.472C352.36 74.128 352.648 72.592 353.224 70.864C353.8 69.136 354.44 67.344 355.144 65.488C355.912 63.632 356.584 61.84 357.16 60.112C357.736 58.32 358.024 56.72 358.024 55.312C358.024 54.032 357.64 53.04 356.872 52.336C356.104 51.568 354.696 51.184 352.648 51.184C349.64 51.184 346.856 51.888 344.296 53.296C341.736 54.704 339.496 56.528 337.576 58.768C335.656 60.944 334.152 63.248 333.064 65.68C332.04 68.112 331.528 70.32 331.528 72.304C331.528 74.672 332.2 76.72 333.544 78.448C334.952 80.112 336.744 81.648 338.92 83.056C341.096 84.4 343.4 85.776 345.832 87.184C348.328 88.528 350.664 90.032 352.84 91.696C355.016 93.36 356.776 95.344 358.12 97.648C359.528 99.888 360.232 102.64 360.232 105.904C360.232 109.232 359.496 112.176 358.024 114.736C356.552 117.232 354.568 119.344 352.072 121.072C349.64 122.8 346.952 124.112 344.008 125.008C341.064 125.904 338.12 126.352 335.176 126.352ZM377.428 123.376C374.356 123.376 371.796 122.352 369.748 120.304C367.7 118.256 366.676 115.184 366.676 111.088C366.676 107.888 367.284 104.784 368.5 101.776C369.78 98.704 371.444 95.952 373.492 93.52C375.54 91.088 377.812 89.168 380.308 87.76C382.804 86.288 385.268 85.552 387.7 85.552C390.324 85.552 392.116 86.32 393.076 87.856C394.036 89.392 394.516 90.992 394.516 92.656C394.516 94.512 394.068 96.144 393.172 97.552C392.34 98.96 391.188 99.664 389.716 99.664C388.628 99.664 387.7 99.184 386.932 98.224C387.892 97.712 388.724 96.688 389.428 95.152C390.132 93.552 390.484 92.048 390.484 90.64C390.484 89.872 390.324 89.296 390.004 88.912C389.748 88.464 389.204 88.24 388.372 88.24C386.644 88.24 384.852 89.008 382.996 90.544C381.204 92.08 379.508 94.064 377.908 96.496C376.372 98.928 375.092 101.488 374.068 104.176C373.108 106.864 372.628 109.392 372.628 111.76C372.628 113.744 373.108 115.568 374.068 117.232C375.028 118.896 376.884 119.728 379.636 119.728C382.196 119.728 384.756 119.024 387.316 117.616C389.94 116.208 392.372 114.192 394.612 111.568C396.852 108.944 398.644 105.872 399.988 102.352L401.236 103.312C399.764 107.152 397.748 110.608 395.188 113.68C392.628 116.688 389.812 119.056 386.74 120.784C383.668 122.512 380.564 123.376 377.428 123.376ZM402.7 121.648C401.484 121.648 400.524 120.624 399.82 118.576C399.116 116.528 398.764 114.224 398.764 111.664C398.764 108.592 399.276 104.944 400.3 100.72C401.324 96.496 402.668 92.048 404.332 87.376C405.996 82.704 407.852 78.128 409.9 73.648C412.012 69.168 414.156 65.104 416.332 61.456C418.508 57.808 420.556 54.896 422.476 52.72C424.396 50.544 426.06 49.456 427.468 49.456C428.62 49.456 429.42 50.16 429.868 51.568C430.38 52.912 430.636 54.224 430.636 55.504C430.636 57.296 430.22 59.472 429.388 62.032C428.62 64.592 427.532 67.344 426.124 70.288C424.716 73.168 423.084 76.016 421.228 78.832C419.372 81.648 417.356 84.24 415.18 86.608C413.004 88.912 410.796 90.736 408.556 92.08C407.788 93.936 407.116 96.016 406.54 98.32C406.028 100.624 405.644 102.896 405.388 105.136C405.132 107.312 405.004 109.264 405.004 110.992C405.004 111.696 405.004 112.304 405.004 112.816C405.068 113.328 405.132 113.808 405.196 114.256C406.092 111.632 407.052 109.104 408.076 106.672C409.164 104.176 410.316 101.904 411.532 99.856C412.748 97.744 414.028 95.92 415.372 94.384C416.78 92.784 418.252 91.568 419.788 90.736C421.324 89.84 422.956 89.392 424.684 89.392C426.476 89.392 427.884 89.84 428.908 90.736C429.996 91.568 430.764 92.656 431.212 94C431.724 95.28 431.98 96.624 431.98 98.032C431.98 100.016 431.628 101.936 430.924 103.792C430.284 105.648 429.612 107.44 428.908 109.168C428.204 110.896 427.852 112.56 427.852 114.16C427.852 115.44 428.108 116.368 428.62 116.944C429.196 117.52 429.9 117.808 430.732 117.808C432.204 117.808 433.836 117.104 435.628 115.696C437.484 114.288 439.308 112.432 441.1 110.128C442.892 107.76 444.428 105.2 445.708 102.448L446.956 103.6C445.612 106.736 443.98 109.584 442.06 112.144C440.14 114.64 438.028 116.624 435.724 118.096C433.42 119.568 431.02 120.304 428.524 120.304C426.348 120.304 424.684 119.728 423.531 118.576C422.444 117.424 421.9 115.984 421.9 114.256C421.9 112.912 422.156 111.408 422.668 109.744C423.18 108.08 423.66 106.384 424.108 104.656C424.62 102.928 424.876 101.296 424.876 99.76C424.876 98.096 424.524 96.912 423.82 96.208C423.116 95.504 422.252 95.152 421.228 95.152C419.628 95.152 418.188 95.792 416.908 97.072C415.628 98.352 414.444 100.016 413.356 102.064C412.332 104.048 411.34 106.16 410.38 108.4C409.484 110.64 408.62 112.784 407.788 114.832C406.956 116.816 406.124 118.448 405.292 119.728C404.46 121.008 403.596 121.648 402.7 121.648ZM409.804 88.336C411.596 86.928 413.324 85.136 414.988 82.96C416.716 80.784 418.316 78.48 419.788 76.048C421.26 73.552 422.572 71.12 423.724 68.752C424.876 66.384 425.772 64.24 426.411 62.32C427.052 60.4 427.372 58.96 427.372 58C427.372 57.68 427.34 57.488 427.276 57.424C427.212 57.296 427.116 57.232 426.988 57.232C426.54 57.232 425.612 58.128 424.204 59.92C422.86 61.648 421.292 63.984 419.5 66.928C417.708 69.872 415.948 73.2 414.22 76.912C412.492 80.624 411.02 84.432 409.804 88.336ZM454.212 122.224C450.308 122.224 447.364 121.136 445.38 118.96C443.46 116.848 442.5 114.224 442.5 111.088C442.5 108.208 443.204 105.168 444.612 101.968C446.084 98.768 448.004 95.76 450.372 92.944C452.804 90.128 455.46 87.856 458.34 86.128C461.22 84.336 464.068 83.44 466.884 83.44C468.356 83.44 469.7 83.824 470.916 84.592C472.196 85.36 472.836 86.928 472.836 89.296C472.836 91.728 472.1 94.032 470.628 96.208C469.22 98.32 467.332 100.208 464.964 101.872C462.66 103.536 460.1 104.912 457.284 106C454.532 107.024 451.78 107.664 449.028 107.92C448.9 108.56 448.804 109.168 448.74 109.744C448.676 110.32 448.644 110.864 448.644 111.376C448.644 112.336 448.74 113.296 448.932 114.256C449.188 115.216 449.604 116.112 450.18 116.944C450.756 117.712 451.524 118.32 452.484 118.768C453.508 119.216 454.756 119.44 456.228 119.44C458.98 119.44 461.7 118.672 464.388 117.136C467.076 115.536 469.572 113.456 471.876 110.896C474.18 108.336 476.132 105.52 477.732 102.448L478.884 103.312C477.156 107.152 474.948 110.48 472.26 113.296C469.636 116.112 466.756 118.288 463.62 119.824C460.548 121.424 457.412 122.224 454.212 122.224ZM449.508 106.096C451.236 105.52 453.188 104.688 455.364 103.6C457.54 102.448 459.62 101.104 461.604 99.568C463.652 98.032 465.316 96.336 466.596 94.48C467.94 92.624 468.612 90.672 468.612 88.624C468.612 87.92 468.484 87.376 468.228 86.992C467.972 86.608 467.428 86.416 466.596 86.416C465.06 86.416 463.428 87.024 461.7 88.24C459.972 89.392 458.308 90.928 456.708 92.848C455.108 94.768 453.668 96.88 452.388 99.184C451.108 101.488 450.148 103.792 449.508 106.096ZM481.477 120.88C480.389 120.88 479.269 120.592 478.117 120.016C477.029 119.504 476.133 118.64 475.428 117.424C474.66 116.208 474.276 114.672 474.276 112.816C474.276 110.704 474.788 108.336 475.812 105.712C476.837 103.088 478.213 100.496 479.941 97.936C481.669 95.312 483.653 92.912 485.893 90.736C488.133 88.496 490.469 86.736 492.901 85.456C495.333 84.112 497.733 83.44 500.101 83.44C501.445 83.44 502.469 83.696 503.173 84.208C503.941 84.656 504.325 85.392 504.325 86.416C504.325 86.672 504.293 86.896 504.229 87.088C504.229 87.28 504.197 87.504 504.133 87.76C503.813 87.248 503.333 86.896 502.693 86.704C502.117 86.448 501.381 86.32 500.484 86.32C498.437 86.32 496.421 86.96 494.437 88.24C492.517 89.456 490.725 91.088 489.061 93.136C487.461 95.12 486.053 97.264 484.837 99.568C483.621 101.872 482.661 104.112 481.957 106.288C481.317 108.4 480.997 110.192 480.997 111.664C480.997 113.072 481.317 114.192 481.957 115.024C482.597 115.856 483.429 116.272 484.453 116.272C486.181 116.272 488.261 115.184 490.693 113.008C493.189 110.832 495.717 107.76 498.277 103.792C500.837 99.824 503.141 95.184 505.189 89.872C506.597 86.16 508.037 82.384 509.509 78.544C511.045 74.704 512.581 71.024 514.117 67.504C515.653 63.92 517.125 60.752 518.533 58C520.005 55.184 521.381 52.976 522.661 51.376C524.005 49.712 525.189 48.88 526.213 48.88C526.725 48.88 527.173 49.104 527.557 49.552C527.941 49.936 528.133 50.448 528.133 51.088C528.133 52.112 527.589 53.872 526.5 56.368C525.477 58.8 524.101 61.744 522.373 65.2C520.709 68.592 518.949 72.304 517.093 76.336C515.237 80.368 513.445 84.464 511.717 88.624C510.053 92.784 508.677 96.816 507.589 100.72C506.565 104.56 506.053 108.08 506.053 111.28C506.053 113.072 506.149 114.416 506.341 115.312C506.533 116.208 507.173 116.656 508.261 116.656C509.605 116.656 511.173 116.08 512.965 114.928C514.757 113.776 516.549 112.144 518.341 110.032C520.133 107.92 521.701 105.392 523.045 102.448L524.197 103.312C522.981 106.576 521.317 109.52 519.205 112.144C517.093 114.704 514.821 116.72 512.389 118.192C510.021 119.728 507.749 120.496 505.573 120.496C503.205 120.496 501.541 119.696 500.581 118.096C499.685 116.56 499.237 114.96 499.237 113.296C499.237 112.208 499.397 110.768 499.717 108.976C500.037 107.184 500.485 105.2 501.061 103.024C499.013 106.416 496.837 109.488 494.533 112.24C492.229 114.928 489.957 117.04 487.717 118.576C485.541 120.112 483.461 120.88 481.477 120.88ZM528.388 120.88C526.212 120.88 524.452 119.92 523.108 118C521.828 116.016 521.188 113.744 521.188 111.184C521.188 109.328 521.476 107.184 522.052 104.752C522.692 102.32 523.46 99.92 524.355 97.552C525.252 95.184 526.18 93.232 527.14 91.696C528.1 90.16 528.932 89.392 529.636 89.392C529.956 89.392 530.5 89.584 531.268 89.968C532.036 90.288 532.676 90.736 533.188 91.312C532.484 92.4 531.62 94.064 530.596 96.304C529.572 98.544 528.676 100.944 527.908 103.504C527.14 106.064 526.756 108.432 526.756 110.608C526.756 111.12 526.82 111.92 526.948 113.008C527.076 114.032 527.396 114.96 527.908 115.792C528.42 116.624 529.188 117.04 530.212 117.04C531.428 117.04 532.676 116.432 533.956 115.216C535.236 113.936 536.516 112.304 537.796 110.32C539.14 108.336 540.42 106.192 541.636 103.888C542.852 101.584 543.972 99.376 544.996 97.264C546.084 95.152 546.98 93.392 547.684 91.984C548.068 92.048 548.612 92.176 549.316 92.368C550.084 92.56 550.756 92.816 551.332 93.136C551.972 93.456 552.292 93.904 552.292 94.48C552.292 94.736 551.972 95.6 551.332 97.072C550.692 98.48 549.924 100.24 549.028 102.352C548.196 104.4 547.46 106.48 546.82 108.592C546.18 110.704 545.859 112.56 545.859 114.16C545.859 115.312 546.083 116.24 546.531 116.944C547.044 117.648 547.876 118 549.028 118C550.372 118 552.004 117.392 553.924 116.176C555.844 114.96 557.796 113.2 559.78 110.896C561.764 108.528 563.524 105.712 565.06 102.448L566.308 103.312C564.964 106.768 563.204 109.84 561.028 112.528C558.852 115.152 556.548 117.2 554.116 118.672C551.684 120.144 549.316 120.88 547.012 120.88C545.348 120.88 544.004 120.56 542.98 119.92C542.02 119.28 541.316 118.416 540.868 117.328C540.484 116.24 540.292 115.056 540.292 113.776C540.292 113.008 540.356 112.24 540.484 111.472C540.612 110.64 540.772 109.808 540.964 108.976C539.812 111.088 538.564 113.072 537.22 114.928C535.876 116.72 534.468 118.16 532.996 119.248C531.524 120.336 529.988 120.88 528.388 120.88ZM571.249 120.88C568.497 120.88 566.513 119.92 565.297 118C564.145 116.144 563.569 113.808 563.569 110.992C563.569 107.92 564.145 104.272 565.297 100.048C566.449 95.824 567.953 91.376 569.809 86.704C571.729 82.032 573.809 77.488 576.049 73.072C578.289 68.592 580.529 64.528 582.769 60.88C585.009 57.232 587.057 54.32 588.913 52.144C590.833 49.968 592.337 48.88 593.425 48.88C594.129 48.88 594.705 49.296 595.153 50.128C595.601 50.896 595.953 51.856 596.209 53.008C596.465 54.096 596.593 55.088 596.593 55.984C596.593 57.712 596.145 59.984 595.249 62.8C594.417 65.552 593.201 68.656 591.601 72.112C590.065 75.504 588.209 78.96 586.033 82.48C583.921 85.936 581.585 89.264 579.025 92.464C576.529 95.664 573.873 98.416 571.057 100.72C570.673 102.448 570.353 104.144 570.097 105.808C569.905 107.408 569.809 108.944 569.809 110.416C569.809 112.912 570.161 114.768 570.865 115.984C571.569 117.2 572.625 117.808 574.033 117.808C575.761 117.808 577.457 117.04 579.121 115.504C580.849 113.968 582.449 112.048 583.921 109.744C585.457 107.376 586.769 104.944 587.857 102.448L589.297 103.216C586.737 108.656 583.953 112.976 580.945 116.176C577.937 119.312 574.705 120.88 571.249 120.88ZM571.921 97.456C574.161 95.216 576.337 92.656 578.449 89.776C580.561 86.832 582.513 83.792 584.305 80.656C586.161 77.52 587.793 74.48 589.201 71.536C590.609 68.592 591.697 65.968 592.465 63.664C593.233 61.296 593.617 59.472 593.617 58.192C593.617 57.552 593.521 57.136 593.329 56.944C593.201 56.752 593.073 56.656 592.945 56.656C592.433 56.656 591.537 57.488 590.257 59.152C589.041 60.752 587.601 62.928 585.937 65.68C584.273 68.432 582.577 71.568 580.849 75.088C579.121 78.608 577.457 82.288 575.857 86.128C574.321 89.968 573.009 93.744 571.921 97.456ZM596.337 122.224C592.433 122.224 589.489 121.136 587.505 118.96C585.585 116.848 584.625 114.224 584.625 111.088C584.625 108.208 585.329 105.168 586.737 101.968C588.209 98.768 590.129 95.76 592.497 92.944C594.929 90.128 597.585 87.856 600.465 86.128C603.345 84.336 606.193 83.44 609.009 83.44C610.481 83.44 611.825 83.824 613.041 84.592C614.321 85.36 614.961 86.928 614.961 89.296C614.961 91.728 614.225 94.032 612.753 96.208C611.345 98.32 609.457 100.208 607.089 101.872C604.785 103.536 602.225 104.912 599.409 106C596.657 107.024 593.905 107.664 591.153 107.92C591.025 108.56 590.929 109.168 590.865 109.744C590.801 110.32 590.769 110.864 590.769 111.376C590.769 112.336 590.865 113.296 591.057 114.256C591.313 115.216 591.729 116.112 592.305 116.944C592.881 117.712 593.649 118.32 594.609 118.768C595.633 119.216 596.881 119.44 598.353 119.44C601.105 119.44 603.825 118.672 606.513 117.136C609.201 115.536 611.697 113.456 614.001 110.896C616.305 108.336 618.257 105.52 619.857 102.448L621.009 103.312C619.281 107.152 617.073 110.48 614.385 113.296C611.761 116.112 608.881 118.288 605.745 119.824C602.673 121.424 599.537 122.224 596.337 122.224ZM591.633 106.096C593.361 105.52 595.313 104.688 597.489 103.6C599.665 102.448 601.745 101.104 603.729 99.568C605.777 98.032 607.441 96.336 608.721 94.48C610.065 92.624 610.737 90.672 610.737 88.624C610.737 87.92 610.609 87.376 610.353 86.992C610.097 86.608 609.553 86.416 608.721 86.416C607.185 86.416 605.553 87.024 603.825 88.24C602.097 89.392 600.433 90.928 598.833 92.848C597.233 94.768 595.793 96.88 594.513 99.184C593.233 101.488 592.273 103.792 591.633 106.096Z" fill="#4A5568"/>
</svg>
